<svg aria-hidden="true" style="position: absolute; width: 0; height: 0; overflow: hidden;" version="1.1" xmlns="http://www.w3.org/2000/svg" xmlns:xlink="http://www.w3.org/1999/xlink">
<defs>
<symbol id="icon-antenna_mobile_1" viewBox="0 0 32 32">
<path fill="#212121" style="fill: var(--color1, #212121)" d="M30.773 22.098l-8.443-8.505 0.937-4.615c0.242 0.094 0.499 0.144 0.758 0.146h0.006c1.192 0.014 2.17-0.941 2.184-2.133s-0.941-2.17-2.133-2.184c-1.192-0.014-2.17 0.941-2.184 2.133-0.003 0.255 0.039 0.509 0.125 0.749l-4.96 0.605-8.091-8.133c-0.099-0.101-0.235-0.159-0.377-0.16-0.14 0.001-0.274 0.056-0.373 0.155l-1.513 1.504c-0.208 0.208-0.208 0.546 0 0.754l0.814 0.826c-3.153 5.798-2.129 12.978 2.519 17.663 0.043 0.041 0.092 0.074 0.146 0.098-0.034 0.18-0.051 0.364-0.052 0.547v6.187h-6.4c-1.472 0.002-2.665 1.195-2.667 2.667v1.067c0 0.295 0.239 0.533 0.533 0.533h24.533c0.295 0 0.533-0.239 0.533-0.533v-1.067c-0.002-1.472-1.195-2.665-2.667-2.667h-6.4v-2.742c1.003 0.21 2.024 0.317 3.049 0.32 2.458-0.003 4.877-0.615 7.040-1.783l0.818 0.823c0.099 0.101 0.235 0.159 0.377 0.16 0.14-0.001 0.274-0.056 0.373-0.155l1.513-1.504c0.208-0.208 0.208-0.546 0-0.754zM23.28 6.233c0.418-0.415 1.093-0.414 1.508 0.004s0.414 1.093-0.004 1.508c-0.2 0.199-0.47 0.31-0.752 0.31h-0.003c-0.589-0.003-1.064-0.483-1.061-1.072 0.002-0.282 0.115-0.552 0.314-0.751h-0.002zM22.024 9.738l-0.598 2.946-1.175-1.182 1.774-1.763zM21.419 8.836l-1.92 1.909-1.485-1.493 3.405-0.415zM24.004 28.8c0.884 0 1.6 0.716 1.6 1.6v0.533h-23.467v-0.533c0-0.884 0.716-1.6 1.6-1.6h20.267zM16.537 26.667v1.067h-5.333v-1.067h5.333zM11.204 25.6v-4.053c0-1.294 1.196-2.347 2.667-2.347s2.667 1.053 2.667 2.347v4.053h-5.333zM17.604 23.904v-2.357c0-1.882-1.675-3.413-3.733-3.413-1.331-0.020-2.576 0.657-3.281 1.786-4.058-4.274-4.971-10.645-2.279-15.887l18.602 18.708c-2.872 1.461-6.165 1.873-9.309 1.163zM28.893 23.22l-21.057-21.181 0.755-0.752 7.935 7.98c0.004 0 0.006 0.007 0.010 0.010l13.115 13.191-0.757 0.752z"></path>
<path fill="#2196f3" style="fill: var(--color2, #2196f3)" d="M13.876 20.267h-0.005c-0.884-0.001-1.601 0.714-1.602 1.598s0.714 1.601 1.598 1.602h0.005c0.884 0.001 1.601-0.714 1.602-1.598s-0.714-1.601-1.598-1.602zM14.249 22.245c-0.1 0.1-0.236 0.156-0.378 0.155-0.295-0.002-0.532-0.241-0.531-0.536 0.001-0.141 0.057-0.276 0.157-0.375s0.233-0.154 0.373-0.155c0.295 0.002 0.532 0.241 0.53 0.536-0.001 0.141-0.057 0.276-0.157 0.375h0.005z"></path>
</symbol>
<symbol id="icon-astronaut_mobile_1" viewBox="0 0 32 32">
<path fill="#2196f3" style="fill: var(--color2, #2196f3)" d="M31.974 4.524c-0.063-0.193-0.229-0.333-0.43-0.363l-1.91-0.278-0.855-1.731c-0.179-0.365-0.777-0.365-0.956 0l-0.855 1.731-1.91 0.278c-0.201 0.029-0.367 0.17-0.431 0.363-0.062 0.193-0.011 0.405 0.135 0.547l1.383 1.348-0.326 1.903c-0.034 0.2 0.048 0.402 0.212 0.522 0.166 0.121 0.382 0.135 0.562 0.040l1.709-0.899 1.709 0.899c0.078 0.041 0.164 0.061 0.249 0.061 0.11 0 0.221-0.034 0.314-0.102 0.164-0.119 0.246-0.322 0.212-0.522l-0.326-1.903 1.383-1.348c0.145-0.142 0.197-0.354 0.135-0.547zM29.511 5.851c-0.125 0.122-0.183 0.299-0.153 0.472l0.191 1.114-1-0.526c-0.078-0.041-0.163-0.061-0.249-0.061s-0.17 0.020-0.249 0.061l-1.001 0.526 0.191-1.114c0.030-0.173-0.028-0.349-0.153-0.472l-0.81-0.789 1.119-0.163c0.174-0.025 0.324-0.134 0.402-0.292l0.5-1.013 0.5 1.013c0.078 0.157 0.228 0.267 0.402 0.292l1.119 0.163-0.809 0.789z"></path>
<path fill="#2196f3" style="fill: var(--color2, #2196f3)" d="M26.133 20.522h-1.067v1.067h1.067v-1.067z"></path>
<path fill="#2196f3" style="fill: var(--color2, #2196f3)" d="M26.133 22.656h-1.067v1.067h1.067v-1.067z"></path>
<path fill="#2196f3" style="fill: var(--color2, #2196f3)" d="M27.2 21.589h-1.067v1.067h1.067v-1.067z"></path>
<path fill="#2196f3" style="fill: var(--color2, #2196f3)" d="M25.067 21.589h-1.067v1.067h1.067v-1.067z"></path>
<path fill="#2196f3" style="fill: var(--color2, #2196f3)" d="M22.4 26.389h-1.067v1.067h1.067v-1.067z"></path>
<path fill="#2196f3" style="fill: var(--color2, #2196f3)" d="M22.4 28.522h-1.067v1.067h1.067v-1.067z"></path>
<path fill="#2196f3" style="fill: var(--color2, #2196f3)" d="M23.467 27.456h-1.067v1.067h1.067v-1.067z"></path>
<path fill="#2196f3" style="fill: var(--color2, #2196f3)" d="M21.333 27.456h-1.067v1.067h1.067v-1.067z"></path>
<path fill="#2196f3" style="fill: var(--color2, #2196f3)" d="M16 24.256h-1.067v1.067h1.067v-1.067z"></path>
<path fill="#2196f3" style="fill: var(--color2, #2196f3)" d="M16 26.389h-1.067v1.067h1.067v-1.067z"></path>
<path fill="#2196f3" style="fill: var(--color2, #2196f3)" d="M17.067 25.322h-1.067v1.067h1.067v-1.067z"></path>
<path fill="#2196f3" style="fill: var(--color2, #2196f3)" d="M14.933 25.322h-1.067v1.067h1.067v-1.067z"></path>
<path fill="#2196f3" style="fill: var(--color2, #2196f3)" d="M5.866 6.122h-1.067v1.067h1.067v-1.067z"></path>
<path fill="#2196f3" style="fill: var(--color2, #2196f3)" d="M5.866 8.255h-1.067v1.067h1.067v-1.067z"></path>
<path fill="#2196f3" style="fill: var(--color2, #2196f3)" d="M6.933 7.189h-1.067v1.067h1.067v-1.067z"></path>
<path fill="#2196f3" style="fill: var(--color2, #2196f3)" d="M4.8 7.189h-1.067v1.067h1.067v-1.067z"></path>
<path fill="#212121" style="fill: var(--color1, #212121)" d="M24.715 14.159c-0.287-0.388-0.709-0.637-1.188-0.705-0.481-0.068-0.956 0.058-1.34 0.352l-1.252 0.96-1.898 1.417-1.358-0.541c2.421-1.086 4.114-3.508 4.114-6.32 0-3.823-3.123-6.933-6.961-6.933s-6.961 3.11-6.961 6.933c0 1.386 0.414 2.674 1.12 3.758l-2.764-0.024c-0.002 0-0.003 0-0.005 0-0.009 0-0.015 0.004-0.023 0.005-0.053 0.002-0.105 0.013-0.155 0.031-0.013 0.005-0.026 0.008-0.038 0.013-0.006 0.003-0.013 0.003-0.019 0.006l-3.233 1.596c-0.001 0-0.001 0-0.001 0.001l-1.893 0.911c-0.021 0.009-0.042 0.021-0.063 0.035-0.755 0.502-1.012 1.489-0.598 2.295 0.22 0.429 0.595 0.745 1.056 0.889 0.178 0.055 0.359 0.083 0.539 0.083 0.29 0 0.577-0.071 0.839-0.211l1.388-0.738 2.264-1.169 1.357-0.008-5.442 5.416c-0.001 0.001-0.001 0.001-0.002 0.001l-1.339 1.333c-0.316 0.315-0.49 0.732-0.49 1.178s0.174 0.863 0.49 1.179c0.325 0.323 0.752 0.485 1.179 0.485s0.854-0.162 1.18-0.485l1.314-1.309 1.741-1.3 0.901 0.897-1.762 1.754c-0 0.001-0.001 0.001-0.002 0.001l-1.339 1.333c-0.316 0.315-0.49 0.732-0.49 1.178s0.174 0.863 0.49 1.179c0.325 0.323 0.753 0.485 1.18 0.485s0.855-0.162 1.18-0.485l3.482-3.467c0.001-0.001 0.001-0.001 0.001-0.002l1.010-1-0.004-0.004c0.006-0.006 0.015-0.009 0.022-0.015l5.166-5.658 3.471 0.494c0.025 0.004 0.050 0.005 0.075 0.005 0.065 0 0.127-0.015 0.187-0.038 0.018-0.006 0.033-0.015 0.050-0.023 0.019-0.010 0.039-0.015 0.058-0.027l3.213-2.133c0.012-0.008 0.018-0.021 0.029-0.029 0.013-0.010 0.029-0.014 0.041-0.026l1.271-1.191c0.662-0.62 0.753-1.635 0.212-2.362zM2.13 17.77c-0.173 0.093-0.37 0.111-0.558 0.052-0.187-0.058-0.338-0.186-0.427-0.358-0.161-0.314-0.068-0.696 0.214-0.902l1.314-0.632 0.449 1.312-0.992 0.527zM5.628 15.942l-1.548 0.8-0.439-1.283 2.027-1.001-0.040 1.484zM20.727 9.322c0 0.918-0.219 1.785-0.599 2.559l-4.181-1.899c-0.044-0.573-0.341-1.075-0.788-1.388l1.464-4.86c2.378 0.756 4.105 2.974 4.105 5.588zM8.938 9.322c0-3.235 2.644-5.867 5.894-5.867 0.253 0 0.5 0.021 0.745 0.052l-1.432 4.754c-0.019-0.001-0.037-0.006-0.057-0.006-1.033 0-1.873 0.837-1.873 1.867s0.84 1.867 1.873 1.867c0.694 0 1.294-0.383 1.618-0.945l3.862 1.755c-1.075 1.446-2.795 2.39-4.737 2.39-3.25 0-5.894-2.632-5.894-5.867zM14.894 10.122c0 0.441-0.362 0.8-0.806 0.8s-0.806-0.359-0.806-0.8c0-0.441 0.362-0.8 0.806-0.8s0.806 0.359 0.806 0.8zM2.465 25.146c-0.236 0.234-0.619 0.234-0.854 0.001-0.114-0.114-0.176-0.263-0.176-0.423s0.062-0.309 0.176-0.421l0.962-0.958 0.851 0.848-0.959 0.955zM5.679 28.88c-0.236 0.234-0.619 0.235-0.855 0.001-0.114-0.114-0.176-0.263-0.176-0.423s0.062-0.309 0.176-0.421l0.963-0.959 0.852 0.848-0.96 0.955zM9.16 25.411c-0.001 0-0.001 0-0.002 0.001l-1.765 1.76-0.852-0.848 1.763-1.755c0 0 0 0 0-0s0.001-0.001 0.002-0.001c0.040-0.040 0.065-0.088 0.090-0.135 0.007-0.014 0.020-0.026 0.026-0.040 0.017-0.041 0.019-0.085 0.026-0.129 0.003-0.025 0.014-0.047 0.014-0.073 0-0.036-0.013-0.070-0.020-0.106-0.006-0.032-0.006-0.065-0.019-0.095-0.020-0.050-0.055-0.094-0.091-0.138-0.010-0.012-0.014-0.027-0.025-0.038 0 0 0 0-0.001 0s-0.001-0.002-0.001-0.002l-1.607-1.6c-0.017-0.017-0.039-0.024-0.058-0.038-0.028-0.022-0.055-0.042-0.087-0.058-0.030-0.015-0.061-0.024-0.093-0.033-0.034-0.010-0.067-0.017-0.103-0.020-0.033-0.002-0.063 0.001-0.095 0.005-0.036 0.004-0.069 0.009-0.104 0.020-0.034 0.011-0.063 0.027-0.094 0.045-0.020 0.011-0.042 0.015-0.061 0.029l-1.773 1.324-0.901-0.897 2.399-2.386 4.361 4.289-0.928 0.919zM15.979 18.394c-0.015-0.002-0.030 0.004-0.045 0.003-0.039-0.002-0.076 0.001-0.115 0.007-0.030 0.005-0.059 0.011-0.088 0.021-0.034 0.012-0.065 0.028-0.097 0.047-0.030 0.018-0.057 0.037-0.083 0.061-0.013 0.011-0.028 0.017-0.040 0.029l-4.698 5.146-4.328-4.257 2.833-2.818c0.209-0.208 0.21-0.546 0.002-0.755-0.105-0.105-0.243-0.157-0.381-0.156v-0.001l-2.219 0.013 0.028-1.607 3.104 0.027c1.265 1.294 3.029 2.101 4.981 2.101 0.437 0 0.864-0.045 1.279-0.123 0.040 0.032 0.079 0.065 0.13 0.085l2.41 0.96 0.152 0.758 0.178 0.885-3.003-0.427zM20.020 18.572l-0.313-1.558 1.446-1.080 0.947 1.257-2.080 1.381zM23.774 15.741l-0.838 0.785-0.931-1.236 0.831-0.637c0.155-0.119 0.351-0.168 0.543-0.143 0.193 0.027 0.364 0.128 0.48 0.284 0.217 0.292 0.18 0.699-0.085 0.947z"></path>
<path fill="#212121" style="fill: var(--color1, #212121)" d="M13.602 18.544l-2.143-2.133c-0.207-0.207-0.545-0.207-0.753 0l-2.142 2.133c-0.1 0.101-0.157 0.236-0.157 0.378s0.056 0.278 0.157 0.378l2.142 2.133c0.104 0.103 0.241 0.155 0.377 0.155s0.273-0.052 0.376-0.155l2.143-2.133c0.1-0.1 0.157-0.236 0.157-0.378s-0.057-0.278-0.157-0.378zM11.083 20.303l-1.387-1.381 1.387-1.381 1.387 1.381-1.387 1.381z"></path>
<path fill="#212121" style="fill: var(--color1, #212121)" d="M17.164 5.071l-0.258 1.036c0.071 0.018 1.738 0.452 1.738 2.149h1.067c-0-2.017-1.666-2.965-2.547-3.185z"></path>
<path fill="#212121" style="fill: var(--color1, #212121)" d="M19.711 9.322h-1.067v1.067h1.067v-1.067z"></path>
</symbol>
<symbol id="icon-clients_mobile_1" viewBox="0 0 32 32">
<path fill="#afb1b8" style="fill: var(--color3, #afb1b8)" d="M11.17 8.453l2.206 2.088h6.154v5.826l2.206 2.088v-10.003h-10.566z"></path>
<path fill="#afb1b8" style="fill: var(--color3, #afb1b8)" d="M9.358 10.453v9.717h10.264v-3.862l-6.182-5.852-4.082-0.002zM17.667 18.749h-6.685v-6.535h0.473v6.093h6.212v0.442z"></path>
<path fill="#afb1b8" style="fill: var(--color3, #afb1b8)" d="M12.314 21.972l0.247-0.509h0.206l-0.36 0.678v0.395h-0.187v-0.395l-0.36-0.678h0.207l0.247 0.509zM13.374 22.287h-0.416l-0.087 0.25h-0.194l0.405-1.073h0.167l0.406 1.073h-0.195l-0.088-0.25zM13.011 22.137h0.311l-0.155-0.445-0.156 0.445zM14.109 22.247c0-0.050 0.014-0.095 0.041-0.136s0.080-0.091 0.16-0.148c-0.042-0.053-0.071-0.097-0.088-0.134s-0.024-0.072-0.024-0.107c0-0.084 0.026-0.15 0.077-0.199s0.12-0.074 0.206-0.074c0.078 0 0.142 0.023 0.192 0.069s0.075 0.102 0.075 0.17c0 0.045-0.011 0.086-0.034 0.124s-0.060 0.075-0.111 0.112l-0.073 0.053 0.207 0.245c0.030-0.059 0.045-0.125 0.045-0.197h0.155c0 0.132-0.031 0.241-0.093 0.325l0.158 0.186h-0.208l-0.060-0.072c-0.077 0.057-0.168 0.086-0.274 0.086s-0.191-0.028-0.255-0.084c-0.063-0.056-0.095-0.13-0.095-0.22zM14.464 22.409c0.060 0 0.117-0.020 0.169-0.060l-0.234-0.276-0.023 0.016c-0.059 0.045-0.088 0.096-0.088 0.153 0 0.050 0.016 0.090 0.048 0.121s0.075 0.046 0.128 0.046zM14.365 21.717c0 0.041 0.025 0.093 0.076 0.155l0.082-0.056 0.023-0.018c0.030-0.027 0.046-0.062 0.046-0.104 0-0.028-0.011-0.052-0.032-0.072s-0.048-0.030-0.080-0.030c-0.035 0-0.063 0.012-0.083 0.035s-0.031 0.053-0.031 0.089zM16.315 22.188c-0.011 0.114-0.053 0.204-0.127 0.268s-0.172 0.096-0.294 0.096c-0.085 0-0.161-0.020-0.226-0.060s-0.115-0.099-0.15-0.173-0.054-0.161-0.055-0.26v-0.1c0-0.101 0.018-0.19 0.054-0.268s0.087-0.137 0.154-0.178c0.067-0.042 0.145-0.063 0.233-0.063 0.118 0 0.214 0.032 0.286 0.097s0.114 0.155 0.126 0.273h-0.186c-0.009-0.077-0.031-0.133-0.068-0.167s-0.089-0.052-0.158-0.052c-0.081 0-0.143 0.030-0.187 0.089s-0.065 0.146-0.066 0.26v0.095c0 0.116 0.021 0.204 0.062 0.265s0.103 0.091 0.183 0.091c0.073 0 0.128-0.016 0.165-0.049s0.060-0.088 0.070-0.164h0.186zM17.339 22.028c0 0.105-0.018 0.198-0.055 0.277s-0.088 0.14-0.156 0.183c-0.067 0.042-0.145 0.063-0.233 0.063s-0.165-0.021-0.233-0.063c-0.068-0.043-0.12-0.103-0.158-0.182s-0.056-0.169-0.056-0.272v-0.060c0-0.105 0.018-0.197 0.055-0.277s0.090-0.141 0.157-0.184c0.068-0.043 0.145-0.064 0.233-0.064s0.165 0.021 0.232 0.063c0.068 0.042 0.12 0.102 0.157 0.181s0.056 0.17 0.056 0.275v0.060zM17.152 21.972c0-0.119-0.023-0.21-0.068-0.273s-0.108-0.095-0.191-0.095c-0.081 0-0.144 0.032-0.189 0.095s-0.068 0.152-0.069 0.268v0.062c0 0.118 0.023 0.209 0.069 0.273s0.11 0.097 0.192 0.097c0.083 0 0.146-0.031 0.19-0.094s0.067-0.155 0.067-0.276v-0.056z"></path>
</symbol>

<symbol id="icon-clients_mobile_2" viewBox="0 0 32 32">
<path fill="#afb1b8" style="fill: var(--color3, #afb1b8)" d="M15.087 9.037h0.041c0.076 0 0.159 0.008 0.241 0.015 0.36 0.025 0.718 0.079 1.069 0.161v-0.864c-0.362-0.091-0.731-0.15-1.104-0.176-0.141-0.011-0.292-0.018-0.446-0.021h-0.129c-0.747 0.003-1.491 0.099-2.215 0.286-0.824 0.206-1.615 0.527-2.35 0.956v8.573c0.707-0.384 1.46-0.678 2.24-0.873 0.616-0.157 1.246-0.254 1.88-0.289h0.025c0.106-0.005 0.212-0.008 0.322-0.009v-0.878c-0.825 0.011-1.645 0.12-2.444 0.325-0.296 0.077-0.581 0.16-0.849 0.252l-0.305 0.104v-6.684l0.131-0.063c0.997-0.473 2.074-0.748 3.175-0.81 0.009-0.001 0.018-0.001 0.027 0 0.121-0.006 0.244-0.009 0.364-0.009h0.137c0.063 0.002 0.127 0.003 0.19 0.007z"></path>
<path fill="#afb1b8" style="fill: var(--color3, #afb1b8)" d="M17.241 9.942c-0.201 0-0.399-0.007-0.591-0.021-0.229-0.017-0.464-0.045-0.687-0.082-0.136-0.023-0.27-0.051-0.399-0.081v8.474c0.55 0.136 1.114 0.203 1.68 0.198 0.747-0.003 1.491-0.099 2.215-0.285 0.824-0.206 1.616-0.528 2.351-0.956v-8.42c-0.707 0.384-1.459 0.678-2.239 0.874-0.761 0.195-1.543 0.296-2.329 0.299zM20.63 10.089l0.305-0.103v6.686l-0.131 0.063c-0.501 0.238-1.024 0.426-1.562 0.561-0.653 0.169-1.324 0.256-1.999 0.259-0.202 0-0.402-0.008-0.596-0.025l-0.209-0.018v-6.876l0.244 0.016c0.177 0.012 0.36 0.017 0.56 0.017 0.856-0.003 1.708-0.112 2.538-0.325 0.285-0.075 0.568-0.16 0.849-0.254z"></path>
<path fill="#afb1b8" style="fill: var(--color3, #afb1b8)" d="M10.789 20.894c-0.044-0.046-0.097-0.081-0.155-0.105s-0.121-0.035-0.184-0.032c-0.067-0.001-0.134 0.012-0.196 0.037-0.057 0.023-0.109 0.057-0.153 0.101s-0.077 0.096-0.098 0.154c-0.024 0.060-0.036 0.125-0.035 0.19v1.145c-0.003 0.081 0.013 0.161 0.045 0.235 0.027 0.059 0.066 0.111 0.115 0.154 0.046 0.039 0.1 0.066 0.157 0.081 0.056 0.016 0.113 0.024 0.171 0.024 0.064 0.001 0.127-0.013 0.185-0.040 0.057-0.025 0.109-0.061 0.153-0.106 0.043-0.044 0.076-0.097 0.1-0.154s0.037-0.12 0.037-0.183v-0.128h-0.299v0.102c0.001 0.035-0.005 0.070-0.018 0.102-0.010 0.024-0.025 0.046-0.044 0.064-0.019 0.015-0.040 0.026-0.063 0.033-0.020 0.007-0.041 0.010-0.063 0.011-0.027 0.003-0.054-0.001-0.079-0.012s-0.046-0.028-0.062-0.050c-0.028-0.046-0.042-0.099-0.040-0.154v-1.068c-0.002-0.059 0.011-0.118 0.037-0.171 0.016-0.024 0.038-0.043 0.063-0.056s0.055-0.017 0.083-0.013c0.026-0.001 0.051 0.004 0.075 0.016s0.043 0.028 0.059 0.049c0.034 0.044 0.051 0.098 0.050 0.154v0.099h0.296v-0.117c0.001-0.069-0.012-0.137-0.037-0.2-0.022-0.060-0.056-0.115-0.1-0.161z"></path>
<path fill="#afb1b8" style="fill: var(--color3, #afb1b8)" d="M12.567 20.881c-0.095-0.081-0.216-0.125-0.341-0.126-0.061 0-0.121 0.011-0.179 0.032s-0.112 0.053-0.158 0.094c-0.050 0.045-0.089 0.099-0.116 0.16-0.030 0.070-0.045 0.146-0.044 0.222v1.099c-0.002 0.077 0.013 0.154 0.044 0.225 0.027 0.059 0.067 0.111 0.116 0.154 0.046 0.043 0.1 0.075 0.158 0.097 0.057 0.021 0.118 0.032 0.179 0.032s0.121-0.011 0.179-0.032c0.060-0.022 0.114-0.055 0.162-0.097s0.086-0.095 0.113-0.154c0.031-0.071 0.046-0.148 0.044-0.225v-1.099c0.001-0.076-0.013-0.152-0.044-0.222-0.027-0.061-0.065-0.115-0.113-0.16zM12.427 22.362c0.003 0.029-0.002 0.059-0.012 0.086s-0.027 0.052-0.048 0.073c-0.040 0.033-0.089 0.051-0.141 0.051s-0.101-0.018-0.141-0.051c-0.021-0.020-0.037-0.045-0.048-0.073s-0.014-0.057-0.012-0.086v-1.099c-0.002-0.029 0.002-0.059 0.012-0.086s0.027-0.052 0.048-0.073c0.040-0.033 0.089-0.051 0.141-0.051s0.101 0.018 0.141 0.051c0.021 0.020 0.037 0.045 0.048 0.073s0.014 0.057 0.012 0.086v1.099z"></path>
<path fill="#afb1b8" style="fill: var(--color3, #afb1b8)" d="M14.903 22.853v-2.080h-0.288l-0.378 1.101h-0.005l-0.381-1.101h-0.285v2.080h0.297v-1.265h0.005l0.291 0.894h0.148l0.293-0.894h0.005v1.265h0.297z"></path>
<path fill="#afb1b8" style="fill: var(--color3, #afb1b8)" d="M16.591 20.919c-0.046-0.051-0.104-0.090-0.168-0.114-0.070-0.023-0.142-0.034-0.215-0.032h-0.441v2.080h0.296v-0.812h0.153c0.092 0.004 0.184-0.015 0.267-0.057 0.067-0.037 0.124-0.092 0.163-0.159 0.034-0.055 0.057-0.117 0.068-0.181 0.012-0.078 0.017-0.157 0.016-0.236 0.003-0.1-0.007-0.2-0.029-0.297-0.020-0.072-0.057-0.138-0.109-0.191zM16.438 21.553c-0.001 0.038-0.011 0.075-0.027 0.108-0.017 0.032-0.044 0.058-0.076 0.073-0.044 0.020-0.092 0.029-0.14 0.026h-0.135v-0.707h0.153c0.046-0.002 0.092 0.007 0.134 0.026 0.031 0.018 0.055 0.044 0.070 0.077 0.016 0.037 0.025 0.076 0.026 0.116 0 0.044 0 0.090 0 0.138s0.003 0.098 0 0.143h-0.003z"></path>
<path fill="#afb1b8" style="fill: var(--color3, #afb1b8)" d="M17.995 20.773h-0.243l-0.458 2.080h0.296l0.087-0.447h0.404l0.087 0.447h0.296l-0.47-2.080zM17.721 22.123l0.146-0.754h0.005l0.145 0.754h-0.296z"></path>
<path fill="#afb1b8" style="fill: var(--color3, #afb1b8)" d="M19.909 22.026h-0.005l-0.448-1.253h-0.285v2.080h0.296v-1.251h0.006l0.453 1.251h0.279v-2.080h-0.296v1.253z"></path>
<path fill="#afb1b8" style="fill: var(--color3, #afb1b8)" d="M21.72 20.773l-0.238 0.827h-0.006l-0.238-0.827h-0.314l0.407 1.201v0.879h0.296v-0.879l0.407-1.201h-0.314z"></path>
<path fill="#afb1b8" style="fill: var(--color3, #afb1b8)" d="M9.962 23.44h0.143v0.401h0.097v-0.401h0.142v-0.082h-0.382v0.082z"></path>
<path fill="#afb1b8" style="fill: var(--color3, #afb1b8)" d="M11.163 23.358l-0.187 0.483h0.103l0.040-0.11h0.192l0.041 0.11h0.105l-0.192-0.483h-0.103zM11.148 23.649l0.066-0.179 0.066 0.179h-0.131z"></path>
<path fill="#afb1b8" style="fill: var(--color3, #afb1b8)" d="M12.35 23.663h0.112v0.062c-0.033 0.026-0.073 0.040-0.115 0.041-0.019 0.001-0.039-0.003-0.057-0.011s-0.033-0.020-0.046-0.036c-0.026-0.037-0.038-0.081-0.036-0.126 0-0.107 0.047-0.161 0.139-0.161 0.024-0.002 0.049 0.004 0.069 0.018s0.034 0.035 0.040 0.059l0.095-0.018c-0.021-0.094-0.089-0.142-0.205-0.142-0.062-0.002-0.122 0.021-0.169 0.062-0.024 0.024-0.043 0.053-0.055 0.085s-0.017 0.066-0.014 0.101c-0.003 0.066 0.019 0.131 0.062 0.181 0.024 0.024 0.052 0.043 0.084 0.056s0.066 0.017 0.099 0.015c0.076 0.002 0.149-0.025 0.205-0.077v-0.19h-0.209v0.081z"></path>
<path fill="#afb1b8" style="fill: var(--color3, #afb1b8)" d="M13.561 23.358h-0.098v0.483h0.338v-0.082h-0.241v-0.401z"></path>
<path fill="#afb1b8" style="fill: var(--color3, #afb1b8)" d="M14.586 23.358h-0.098v0.483h0.098v-0.483z"></path>
<path fill="#afb1b8" style="fill: var(--color3, #afb1b8)" d="M15.588 23.68l-0.198-0.322h-0.095v0.483h0.091v-0.316l0.194 0.316h0.097v-0.483h-0.089v0.322z"></path>
<path fill="#afb1b8" style="fill: var(--color3, #afb1b8)" d="M16.494 23.628h0.241v-0.082h-0.241v-0.106h0.259v-0.082h-0.357v0.483h0.367v-0.082h-0.269v-0.131z"></path>
<path fill="#afb1b8" style="fill: var(--color3, #afb1b8)" d="M18.69 23.548h-0.19v-0.19h-0.097v0.483h0.097v-0.211h0.19v0.211h0.097v-0.483h-0.097v0.19z"></path>
<path fill="#afb1b8" style="fill: var(--color3, #afb1b8)" d="M19.602 23.628h0.241v-0.082h-0.241v-0.106h0.26v-0.082h-0.357v0.483h0.366v-0.082h-0.269v-0.131z"></path>
<path fill="#afb1b8" style="fill: var(--color3, #afb1b8)" d="M20.837 23.628c0.084-0.013 0.127-0.058 0.127-0.134 0.002-0.021-0.001-0.041-0.009-0.060s-0.022-0.035-0.038-0.047c-0.044-0.022-0.093-0.032-0.141-0.028h-0.205v0.483h0.097v-0.202h0.019c0.021-0.001 0.041 0.002 0.060 0.011 0.014 0.009 0.026 0.021 0.034 0.035l0.105 0.154h0.116l-0.059-0.094c-0.026-0.047-0.063-0.086-0.107-0.116zM20.74 23.561h-0.072v-0.121h0.076c0.033-0.003 0.067 0.001 0.099 0.012 0.007 0.006 0.013 0.014 0.016 0.023s0.005 0.018 0.005 0.028c-0 0.009-0.003 0.019-0.007 0.027s-0.011 0.016-0.018 0.021c-0.032 0.010-0.065 0.014-0.099 0.012z"></path>
<path fill="#afb1b8" style="fill: var(--color3, #afb1b8)" d="M21.769 23.628h0.241v-0.082h-0.241v-0.106h0.26v-0.082h-0.357v0.483h0.367v-0.082h-0.269v-0.131z"></path>
</symbol>
<symbol id="icon-clients_mobile_3" viewBox="0 0 32 32">
<path fill="#afb1b8" style="fill: var(--color3, #afb1b8)" d="M11.576 22.278c0.005 0 0.009 0.001 0.013 0.003s0.008 0.004 0.011 0.008l0.062 0.065c-0.048 0.053-0.108 0.095-0.175 0.124-0.078 0.031-0.163 0.046-0.248 0.044-0.080 0.002-0.159-0.013-0.233-0.041-0.067-0.027-0.126-0.066-0.175-0.117-0.050-0.052-0.089-0.114-0.113-0.181-0.027-0.074-0.040-0.153-0.040-0.232-0.001-0.079 0.013-0.158 0.043-0.232 0.027-0.067 0.068-0.129 0.12-0.181 0.053-0.051 0.116-0.091 0.186-0.118 0.076-0.028 0.158-0.042 0.24-0.041 0.076-0.002 0.152 0.011 0.223 0.038 0.062 0.025 0.118 0.061 0.167 0.104l-0.052 0.070c-0.004 0.005-0.008 0.009-0.013 0.013-0.006 0.004-0.014 0.006-0.021 0.005s-0.016-0.003-0.023-0.007l-0.028-0.018-0.039-0.024c-0.017-0.009-0.034-0.016-0.052-0.023-0.023-0.008-0.047-0.014-0.071-0.018-0.030-0.005-0.061-0.008-0.092-0.007-0.059-0.001-0.118 0.010-0.172 0.031-0.051 0.020-0.097 0.049-0.135 0.087-0.039 0.040-0.069 0.088-0.088 0.139-0.022 0.059-0.033 0.121-0.032 0.184-0.001 0.063 0.010 0.127 0.032 0.186 0.019 0.051 0.048 0.098 0.086 0.138 0.036 0.038 0.080 0.067 0.129 0.086 0.051 0.020 0.105 0.030 0.16 0.030 0.032 0 0.063-0.002 0.095-0.006 0.051-0.006 0.1-0.023 0.144-0.050 0.022-0.014 0.042-0.029 0.061-0.046 0.008-0.007 0.018-0.011 0.030-0.012z"></path>
<path fill="#afb1b8" style="fill: var(--color3, #afb1b8)" d="M13.37 21.95c0.001 0.079-0.013 0.157-0.042 0.23-0.025 0.067-0.065 0.128-0.117 0.179s-0.114 0.091-0.184 0.117c-0.152 0.055-0.32 0.055-0.472 0-0.069-0.027-0.131-0.067-0.182-0.118-0.052-0.052-0.092-0.113-0.118-0.18-0.056-0.149-0.056-0.312 0-0.461 0.026-0.067 0.067-0.129 0.118-0.181 0.052-0.049 0.114-0.088 0.182-0.113 0.152-0.056 0.32-0.056 0.472 0 0.069 0.027 0.131 0.067 0.183 0.118s0.091 0.112 0.117 0.178c0.029 0.074 0.043 0.153 0.042 0.232zM13.207 21.95c0.001-0.063-0.009-0.125-0.030-0.185-0.017-0.051-0.046-0.098-0.083-0.138-0.036-0.038-0.081-0.068-0.131-0.087-0.11-0.040-0.233-0.040-0.343 0-0.050 0.019-0.095 0.049-0.131 0.087-0.038 0.040-0.066 0.087-0.084 0.138-0.040 0.12-0.040 0.25 0 0.37 0.018 0.051 0.046 0.098 0.084 0.138 0.036 0.038 0.081 0.067 0.131 0.087 0.111 0.039 0.233 0.039 0.343 0 0.050-0.019 0.095-0.049 0.131-0.087 0.037-0.040 0.066-0.087 0.083-0.138 0.021-0.060 0.031-0.122 0.030-0.185z"></path>
<path fill="#afb1b8" style="fill: var(--color3, #afb1b8)" d="M14.593 22.144l0.016 0.041c0.006-0.015 0.012-0.028 0.018-0.041s0.013-0.027 0.020-0.041l0.397-0.687c0.008-0.012 0.015-0.019 0.023-0.021 0.011-0.003 0.022-0.004 0.033-0.004h0.117v1.118h-0.139v-0.822c0-0.010 0-0.022 0-0.035s-0.001-0.026 0-0.038l-0.399 0.697c-0.005 0.010-0.013 0.019-0.023 0.025s-0.022 0.009-0.034 0.009h-0.023c-0.012 0-0.024-0.003-0.034-0.009s-0.018-0.015-0.023-0.026l-0.411-0.701c0 0.013 0 0.027 0 0.040s0 0.025 0 0.035v0.822h-0.134v-1.116h0.117c0.011-0.001 0.022 0.001 0.033 0.004 0.010 0.005 0.017 0.012 0.022 0.021l0.405 0.688c0.008 0.013 0.015 0.026 0.020 0.040z"></path>
<path fill="#afb1b8" style="fill: var(--color3, #afb1b8)" d="M16.087 22.089v0.419h-0.155v-1.116h0.346c0.065-0.001 0.131 0.007 0.193 0.024 0.050 0.014 0.097 0.037 0.137 0.070 0.034 0.030 0.061 0.068 0.078 0.11 0.018 0.046 0.027 0.094 0.026 0.143 0.001 0.049-0.009 0.098-0.029 0.143-0.019 0.043-0.047 0.081-0.084 0.112-0.040 0.034-0.087 0.059-0.137 0.074-0.060 0.018-0.124 0.027-0.187 0.026l-0.188-0.003zM16.087 21.969h0.188c0.041 0 0.081-0.005 0.12-0.017 0.032-0.010 0.062-0.027 0.087-0.048 0.023-0.020 0.041-0.046 0.053-0.074 0.013-0.030 0.019-0.062 0.019-0.094 0.002-0.031-0.003-0.062-0.016-0.091s-0.031-0.055-0.054-0.076c-0.059-0.044-0.134-0.066-0.209-0.060h-0.188v0.46z"></path>
<path fill="#afb1b8" style="fill: var(--color3, #afb1b8)" d="M18.174 22.509h-0.123c-0.012 0-0.024-0.003-0.034-0.010s-0.016-0.016-0.020-0.026l-0.106-0.27h-0.53l-0.11 0.27c-0.004 0.010-0.011 0.019-0.019 0.025-0.010 0.008-0.022 0.012-0.035 0.011h-0.123l0.466-1.118h0.162l0.472 1.118zM17.405 22.094h0.438l-0.185-0.455c-0.014-0.034-0.026-0.069-0.035-0.105l-0.018 0.058c-0.005 0.018-0.012 0.034-0.017 0.047l-0.183 0.454z"></path>
<path fill="#afb1b8" style="fill: var(--color3, #afb1b8)" d="M18.845 21.396c0.009 0.005 0.017 0.012 0.023 0.020l0.679 0.843c0-0.013 0-0.027 0-0.039s0-0.025 0-0.037v-0.792h0.139v1.118h-0.078c-0.011 0-0.022-0.002-0.032-0.007s-0.018-0.012-0.025-0.021l-0.679-0.842c0.001 0.013 0.001 0.026 0 0.038s0 0.024 0 0.034v0.797h-0.139v-1.118h0.082c0.010-0 0.019 0.002 0.028 0.005z"></path>
<path fill="#afb1b8" style="fill: var(--color3, #afb1b8)" d="M20.831 22.064v0.444h-0.155v-0.444l-0.429-0.673h0.139c0.012-0.001 0.024 0.003 0.033 0.010 0.008 0.007 0.016 0.016 0.021 0.025l0.269 0.434c0.011 0.018 0.020 0.035 0.028 0.052s0.014 0.032 0.019 0.047l0.020-0.048c0.008-0.018 0.016-0.035 0.026-0.051l0.265-0.437c0.006-0.009 0.012-0.017 0.020-0.024 0.009-0.008 0.021-0.012 0.033-0.011h0.141l-0.43 0.676z"></path>
<path fill="#afb1b8" style="fill: var(--color3, #afb1b8)" d="M14.517 19.515c0.068 0.008 0.136 0.015 0.205 0.021 1.048-0.447 1.934-1.177 2.548-2.101s0.929-2 0.905-3.093l-1.155-1.1c0.235 1.164 0.125 2.367-0.317 3.475s-1.199 2.077-2.186 2.798z"></path>
<path fill="#afb1b8" style="fill: var(--color3, #afb1b8)" d="M14.104 19.464l0.031 0.006c1.055-0.719 1.859-1.723 2.309-2.882s0.524-2.42 0.213-3.62l-1.645-1.567c0.665 1.288 0.933 2.729 0.772 4.156s-0.744 2.782-1.681 3.906z"></path>
<path fill="#afb1b8" style="fill: var(--color3, #afb1b8)" d="M19.682 15.634c-0.279 1.201-0.958 2.285-1.935 3.089-0.285 0.236-0.593 0.447-0.919 0.629 0.796-0.223 1.527-0.617 2.137-1.151s1.084-1.196 1.384-1.932l-0.667-0.635z"></path>
<path fill="#afb1b8" style="fill: var(--color3, #afb1b8)" d="M19.42 15.457l-0.95-0.905c-0.018 1.032-0.326 2.040-0.891 2.92s-1.368 1.599-2.324 2.084h0.005c0.213-0 0.426-0.012 0.637-0.036 0.894-0.347 1.683-0.9 2.298-1.609s1.036-1.552 1.225-2.453z"></path>
<path fill="#afb1b8" style="fill: var(--color3, #afb1b8)" d="M14.242 10.741l-1.133-1.081c-1.013 0.373-1.884 1.028-2.499 1.881s-0.946 1.862-0.949 2.896v0c0.004 1.143 0.408 2.252 1.148 3.152s1.774 1.539 2.938 1.816c1.039-1.206 1.647-2.696 1.737-4.255s-0.345-3.103-1.24-4.409z"></path>
<path fill="#afb1b8" style="fill: var(--color3, #afb1b8)" d="M22.038 15.29c-0.004-1.356-0.571-2.656-1.578-3.615s-2.37-1.499-3.794-1.503c-0.658-0.001-1.31 0.115-1.923 0.341l6.936 6.609c0.238-0.584 0.359-1.205 0.359-1.832z"></path>
</symbol>
<symbol id="icon-clients_mobile_4" viewBox="0 0 32 32">
<path fill="#2196f3" style="fill: var(--color2, #2196f3)" d="M7.669 13.534h-0.001c-0.683 0-1.237 0.54-1.237 1.205v0.001c0 0.666 0.554 1.205 1.237 1.205h0.001c0.683 0 1.237-0.54 1.237-1.205v-0.001c0-0.666-0.554-1.205-1.237-1.205z"></path>
<path fill="#2196f3" style="fill: var(--color2, #2196f3)" d="M16.796 13.149c-0.002-0.924-0.38-1.81-1.050-2.464s-1.58-1.022-2.528-1.024v0c-0.949 0.002-1.858 0.37-2.529 1.023s-1.049 1.54-1.051 2.465v5.098c0 0 7.158-0.777 7.159-5.097v-0.001z"></path>
<path fill="#2196f3" style="fill: var(--color2, #2196f3)" d="M3.925 19.919c0.002 0.643 0.265 1.26 0.731 1.714s1.099 0.711 1.759 0.713c0.66-0.002 1.292-0.258 1.759-0.713s0.73-1.071 0.732-1.714v-3.547c0 0-4.981 0.541-4.981 3.546zM6.415 20.555c-0.129 0-0.255-0.037-0.362-0.107s-0.191-0.169-0.24-0.285c-0.049-0.116-0.062-0.244-0.037-0.367s0.087-0.237 0.178-0.325c0.091-0.089 0.207-0.149 0.334-0.174s0.258-0.012 0.377 0.036c0.119 0.048 0.221 0.13 0.293 0.234s0.11 0.227 0.11 0.353c0 0.084-0.016 0.167-0.049 0.244s-0.081 0.148-0.141 0.207c-0.061 0.059-0.133 0.106-0.212 0.138s-0.164 0.049-0.25 0.049v-0.002z"></path>
<path fill="#2196f3" style="fill: var(--color2, #2196f3)" d="M11.499 20.16h-0.509v0.526h-0.265v-1.288h0.838v0.215h-0.573v0.333h0.509v0.214zM12.774 20.072c0 0.127-0.022 0.238-0.067 0.333s-0.109 0.169-0.193 0.221c-0.083 0.052-0.179 0.078-0.287 0.078-0.107 0-0.202-0.026-0.286-0.077s-0.149-0.124-0.195-0.219c-0.046-0.096-0.069-0.205-0.070-0.329v-0.064c0-0.127 0.023-0.238 0.068-0.334s0.111-0.171 0.194-0.222c0.084-0.052 0.179-0.078 0.287-0.078s0.203 0.026 0.286 0.078c0.084 0.051 0.148 0.125 0.194 0.222s0.069 0.207 0.069 0.333v0.057zM12.505 20.014c0-0.135-0.024-0.238-0.072-0.308s-0.117-0.105-0.207-0.105c-0.089 0-0.158 0.035-0.206 0.104s-0.073 0.17-0.073 0.304v0.063c0 0.131 0.024 0.233 0.072 0.306s0.118 0.109 0.209 0.109c0.089 0 0.157-0.035 0.205-0.104s0.072-0.172 0.072-0.306v-0.063zM13.635 20.349c0-0.050-0.018-0.088-0.053-0.115s-0.099-0.055-0.191-0.085c-0.092-0.030-0.165-0.060-0.218-0.088-0.146-0.079-0.219-0.185-0.219-0.319 0-0.070 0.019-0.131 0.058-0.186s0.096-0.098 0.169-0.128c0.074-0.031 0.156-0.046 0.248-0.046s0.174 0.017 0.246 0.050c0.072 0.033 0.128 0.080 0.167 0.141s0.060 0.13 0.060 0.207h-0.265c0-0.059-0.019-0.105-0.056-0.137s-0.089-0.050-0.157-0.050c-0.065 0-0.115 0.014-0.151 0.042s-0.054 0.063-0.054 0.108c0 0.042 0.021 0.077 0.063 0.105s0.105 0.055 0.187 0.080c0.151 0.045 0.261 0.102 0.33 0.169s0.104 0.151 0.104 0.251c0 0.111-0.042 0.199-0.127 0.263s-0.198 0.095-0.341 0.095c-0.099 0-0.189-0.018-0.271-0.054s-0.144-0.086-0.187-0.149c-0.042-0.063-0.064-0.136-0.064-0.219h0.266c0 0.142 0.085 0.213 0.255 0.213 0.063 0 0.112-0.013 0.148-0.038s0.053-0.062 0.053-0.108zM15.051 19.614h-0.394v1.073h-0.265v-1.073h-0.389v-0.215h1.049v0.215zM15.977 20.129h-0.509v0.345h0.598v0.213h-0.863v-1.288h0.861v0.215h-0.596v0.307h0.509v0.208zM16.698 20.215h-0.211v0.471h-0.265v-1.288h0.478c0.152 0 0.269 0.034 0.352 0.102s0.124 0.164 0.124 0.287c0 0.088-0.019 0.161-0.057 0.22s-0.095 0.105-0.172 0.14l0.279 0.526v0.012h-0.285l-0.241-0.471zM16.487 20h0.214c0.067 0 0.118-0.017 0.155-0.050s0.055-0.081 0.055-0.141c0-0.061-0.017-0.108-0.052-0.143s-0.087-0.052-0.158-0.052h-0.213v0.387zM18.095 20.233v0.454h-0.265v-1.288h0.502c0.097 0 0.182 0.018 0.255 0.053s0.13 0.086 0.17 0.151c0.040 0.065 0.059 0.139 0.059 0.222 0 0.126-0.043 0.226-0.13 0.299s-0.206 0.109-0.358 0.109h-0.233zM18.095 20.018h0.237c0.070 0 0.124-0.017 0.16-0.050s0.056-0.080 0.056-0.142c0-0.063-0.019-0.114-0.056-0.153s-0.088-0.059-0.154-0.060h-0.243v0.404zM19.773 20.129h-0.509v0.345h0.598v0.213h-0.863v-1.288h0.861v0.215h-0.596v0.307h0.509v0.208zM21.005 19.614h-0.394v1.073h-0.265v-1.073h-0.389v-0.215h1.049v0.215zM21.931 20.129h-0.509v0.345h0.598v0.213h-0.863v-1.288h0.861v0.215h-0.596v0.307h0.509v0.208zM22.652 20.215h-0.211v0.471h-0.265v-1.288h0.479c0.152 0 0.269 0.034 0.352 0.102s0.124 0.164 0.124 0.287c0 0.088-0.019 0.161-0.058 0.22s-0.095 0.105-0.172 0.14l0.279 0.526v0.012h-0.285l-0.241-0.471zM22.441 20h0.214c0.067 0 0.118-0.017 0.155-0.050s0.055-0.081 0.055-0.141c0-0.061-0.017-0.108-0.052-0.143s-0.087-0.052-0.158-0.052h-0.213v0.387zM24 20.349c0-0.050-0.018-0.088-0.053-0.115s-0.099-0.055-0.191-0.085c-0.092-0.030-0.165-0.060-0.218-0.088-0.146-0.079-0.219-0.185-0.219-0.319 0-0.070 0.019-0.131 0.058-0.186s0.096-0.098 0.169-0.128c0.074-0.031 0.156-0.046 0.248-0.046s0.174 0.017 0.246 0.050c0.072 0.033 0.128 0.080 0.167 0.141s0.060 0.13 0.060 0.207h-0.265c0-0.059-0.019-0.105-0.056-0.137s-0.089-0.050-0.157-0.050c-0.065 0-0.115 0.014-0.151 0.042s-0.054 0.063-0.054 0.108c0 0.042 0.021 0.077 0.063 0.105s0.105 0.055 0.187 0.080c0.151 0.045 0.261 0.102 0.33 0.169s0.103 0.151 0.103 0.251c0 0.111-0.042 0.199-0.126 0.263s-0.198 0.095-0.341 0.095c-0.099 0-0.189-0.018-0.271-0.054s-0.144-0.086-0.187-0.149c-0.042-0.063-0.064-0.136-0.064-0.219h0.266c0 0.142 0.085 0.213 0.255 0.213 0.063 0 0.112-0.013 0.148-0.038s0.053-0.062 0.053-0.108z"></path>
</symbol>
<symbol id="icon-clients_mobile_5" viewBox="0 0 32 32">
<path fill="#afb1b8" style="fill: var(--color3, #afb1b8)" d="M8.298 20.612c0.069 0.086 0.106 0.194 0.104 0.305 0.004 0.072-0.009 0.145-0.037 0.211s-0.071 0.126-0.125 0.174c-0.135 0.102-0.302 0.152-0.47 0.141h-0.827v-1.934h0.81c0.16-0.011 0.319 0.035 0.449 0.128 0.052 0.044 0.094 0.1 0.121 0.162s0.040 0.131 0.036 0.199c0.005 0.107-0.029 0.212-0.094 0.296-0.063 0.077-0.15 0.13-0.246 0.151 0.11 0.020 0.209 0.079 0.279 0.165zM7.328 20.32h0.346c0.079 0.006 0.157-0.017 0.22-0.064 0.026-0.024 0.046-0.053 0.059-0.086s0.018-0.068 0.015-0.103c0.002-0.035-0.003-0.070-0.016-0.103s-0.032-0.062-0.058-0.086c-0.065-0.049-0.146-0.072-0.227-0.065h-0.341v0.507zM7.928 21.062c0.028-0.024 0.050-0.055 0.064-0.089s0.020-0.071 0.018-0.108c0.002-0.037-0.004-0.075-0.019-0.109s-0.037-0.065-0.065-0.089c-0.068-0.050-0.151-0.075-0.235-0.070h-0.363v0.532h0.368c0.083 0.005 0.165-0.019 0.232-0.067z"></path>
<path fill="#afb1b8" style="fill: var(--color3, #afb1b8)" d="M9.954 21.443l-0.451-0.756h-0.169v0.756h-0.388v-1.934h0.734c0.185-0.013 0.368 0.046 0.511 0.164 0.103 0.105 0.164 0.243 0.174 0.39s-0.033 0.292-0.12 0.41c-0.091 0.104-0.214 0.174-0.35 0.196l0.48 0.773h-0.421zM9.334 20.424h0.317c0.22 0 0.33-0.098 0.33-0.293 0.002-0.040-0.004-0.080-0.018-0.117s-0.035-0.072-0.063-0.1c-0.070-0.058-0.159-0.086-0.249-0.078h-0.321l0.004 0.588z"></path>
<path fill="#afb1b8" style="fill: var(--color3, #afb1b8)" d="M12.073 21.054h-0.772l-0.136 0.389h-0.406l0.709-1.912h0.439l0.707 1.912h-0.406l-0.134-0.389zM11.969 20.761l-0.282-0.816-0.282 0.816h0.564z"></path>
<path fill="#afb1b8" style="fill: var(--color3, #afb1b8)" d="M14.725 21.443h-0.385l-0.863-1.315v1.315h-0.384v-1.934h0.384l0.863 1.322v-1.322h0.385v1.934z"></path>
<path fill="#afb1b8" style="fill: var(--color3, #afb1b8)" d="M16.921 20.981c-0.080 0.146-0.201 0.265-0.348 0.341-0.168 0.085-0.353 0.127-0.541 0.122h-0.685v-1.934h0.685c0.187-0.005 0.373 0.036 0.541 0.119 0.147 0.075 0.269 0.192 0.348 0.337 0.079 0.157 0.12 0.331 0.12 0.507s-0.041 0.35-0.12 0.507zM16.48 20.934c0.11-0.128 0.17-0.292 0.17-0.461s-0.060-0.333-0.17-0.461c-0.133-0.116-0.306-0.175-0.482-0.164h-0.267v1.252h0.267c0.176 0.011 0.349-0.048 0.482-0.164z"></path>
<path fill="#afb1b8" style="fill: var(--color3, #afb1b8)" d="M12.314 8.755c0 0 4.966 1.883 4.861 4.607v4.608c0 0-4.963-1.884-4.859-4.608l-0.002-4.607z"></path>
<path fill="#afb1b8" style="fill: var(--color3, #afb1b8)" d="M21.599 16.89c0.938-0.648 2.023-1.050 3.155-1.168v-1.442c-1.305 0.505-2.412 1.421-3.155 2.61z"></path>
<path fill="#afb1b8" style="fill: var(--color3, #afb1b8)" d="M21.036 17.325c0.768-1.552 2.099-2.75 3.719-3.347v-4.156c0 0-7.073 2.682-6.923 6.561v6.56c0 0 0.315-0.12 0.811-0.345 0-0.21 0-0.421 0.023-0.634 0.146-1.801 0.999-3.47 2.371-4.64z"></path>
<path fill="#afb1b8" style="fill: var(--color3, #afb1b8)" d="M20.363 19.762c0.037-0.455 0.12-0.905 0.247-1.343-0.854 1.010-1.371 2.264-1.479 3.585-0.010 0.125-0.016 0.249-0.019 0.378 0.402-0.194 0.869-0.435 1.36-0.72-0.125-0.625-0.162-1.264-0.11-1.9z"></path>
<path fill="#afb1b8" style="fill: var(--color3, #afb1b8)" d="M20.644 19.786c-0.047 0.575-0.018 1.153 0.087 1.72 1.932-1.161 4.104-2.955 4.020-5.122v-0.189c-1.381 0.155-2.672 0.761-3.677 1.725-0.235 0.597-0.38 1.226-0.431 1.867z"></path>
</symbol>
<symbol id="icon-clients_mobile_6" viewBox="0 0 32 32">
<path fill="#afb1b8" style="fill: var(--color3, #afb1b8)" d="M16.224 15.503c-0.126-0.184-0.187-0.402-0.172-0.621v-0.9c0-0.276 0.057-0.486 0.171-0.629s0.31-0.215 0.588-0.214c0.261 0 0.447 0.061 0.556 0.183 0.12 0.156 0.178 0.346 0.164 0.539v0.212h-0.467v-0.214c0.002-0.070-0.003-0.14-0.014-0.21-0.007-0.047-0.030-0.091-0.067-0.125-0.048-0.036-0.108-0.053-0.169-0.049-0.064-0.005-0.128 0.014-0.178 0.051-0.041 0.037-0.068 0.085-0.077 0.137-0.013 0.073-0.020 0.148-0.018 0.223v1.093c-0.007 0.105 0.013 0.211 0.060 0.307 0.023 0.032 0.056 0.058 0.093 0.074s0.079 0.022 0.121 0.017c0.060 0.005 0.119-0.013 0.165-0.049 0.038-0.036 0.063-0.082 0.070-0.133 0.011-0.072 0.016-0.146 0.015-0.219v-0.222h0.467v0.202c0.013 0.2-0.044 0.399-0.162 0.566-0.107 0.134-0.29 0.201-0.559 0.201s-0.472-0.071-0.587-0.22z"></path>
<path fill="#afb1b8" style="fill: var(--color3, #afb1b8)" d="M18.169 15.512c-0.118-0.14-0.177-0.344-0.177-0.615v-0.947c0-0.267 0.059-0.47 0.177-0.607s0.315-0.206 0.592-0.205c0.275 0 0.471 0.068 0.589 0.205s0.178 0.34 0.178 0.607v0.947c0 0.267-0.060 0.473-0.18 0.614s-0.315 0.212-0.587 0.212c-0.272 0-0.473-0.071-0.592-0.211zM18.979 15.285c0.042-0.088 0.062-0.184 0.056-0.28v-1.16c0.005-0.095-0.014-0.189-0.055-0.275-0.024-0.033-0.057-0.059-0.095-0.075s-0.081-0.022-0.123-0.016c-0.042-0.006-0.085 0-0.124 0.016s-0.072 0.042-0.096 0.075c-0.043 0.086-0.062 0.18-0.056 0.275v1.165c-0.006 0.096 0.013 0.193 0.056 0.28 0.027 0.030 0.061 0.053 0.099 0.069s0.079 0.025 0.12 0.025c0.041 0 0.082-0.008 0.12-0.025s0.071-0.040 0.099-0.069v-0.005z"></path>
<path fill="#afb1b8" style="fill: var(--color3, #afb1b8)" d="M20.091 13.165h0.503l0.378 1.748 0.387-1.748h0.49l0.049 2.522h-0.362l-0.039-1.753-0.373 1.753h-0.29l-0.387-1.759-0.036 1.759h-0.366l0.045-2.522z"></path>
<path fill="#afb1b8" style="fill: var(--color3, #afb1b8)" d="M22.462 13.165h0.784c0.451 0 0.677 0.239 0.677 0.716 0 0.457-0.238 0.686-0.713 0.685h-0.267v1.121h-0.484l0.003-2.522zM23.132 14.243c0.048 0.006 0.096 0.002 0.142-0.012s0.088-0.037 0.124-0.068c0.055-0.085 0.080-0.185 0.070-0.285 0.003-0.077-0.005-0.154-0.023-0.229-0.007-0.025-0.019-0.049-0.036-0.069s-0.037-0.038-0.061-0.051c-0.067-0.030-0.141-0.044-0.216-0.040h-0.188v0.754h0.188z"></path>
<path fill="#afb1b8" style="fill: var(--color3, #afb1b8)" d="M24.621 13.165h0.52l0.533 2.522h-0.451l-0.105-0.582h-0.463l-0.108 0.582h-0.458l0.533-2.522zM25.065 14.814l-0.181-1.059-0.181 1.059h0.362z"></path>
<path fill="#afb1b8" style="fill: var(--color3, #afb1b8)" d="M26.104 13.165h0.339l0.648 1.439v-1.439h0.401v2.522h-0.322l-0.652-1.502v1.502h-0.415l0.001-2.522z"></path>
<path fill="#afb1b8" style="fill: var(--color3, #afb1b8)" d="M28.433 14.726l-0.539-1.557h0.454l0.329 1 0.309-1h0.444l-0.532 1.557v0.962h-0.464v-0.962z"></path>
<path fill="#afb1b8" style="fill: var(--color3, #afb1b8)" d="M16.97 16.791v0.132h-0.395v1.025h-0.165v-1.025h-0.397v-0.132h0.957z"></path>
<path fill="#afb1b8" style="fill: var(--color3, #afb1b8)" d="M18.208 17.948h-0.128c-0.013 0.001-0.026-0.003-0.036-0.011-0.010-0.007-0.017-0.016-0.021-0.027l-0.114-0.275h-0.548l-0.114 0.275c-0.003 0.012-0.009 0.022-0.017 0.031-0.010 0.008-0.023 0.012-0.036 0.011h-0.128l0.484-1.157h0.168l0.49 1.152zM17.407 17.518h0.457l-0.194-0.471c-0.014-0.036-0.026-0.072-0.036-0.109-0.007 0.022-0.013 0.043-0.018 0.061l-0.017 0.049-0.192 0.47z"></path>
<path fill="#afb1b8" style="fill: var(--color3, #afb1b8)" d="M19.042 17.834c0.030 0.002 0.061 0.002 0.091 0 0.026-0.003 0.052-0.007 0.077-0.014 0.024-0.006 0.047-0.013 0.070-0.021 0.021-0.008 0.043-0.018 0.065-0.028v-0.26h-0.194c-0.005 0-0.010-0-0.014-0.002s-0.009-0.004-0.012-0.007c-0.003-0.003-0.006-0.006-0.007-0.009s-0.002-0.008-0.002-0.012v-0.089h0.375v0.443c-0.031 0.021-0.063 0.039-0.097 0.055s-0.070 0.029-0.107 0.039c-0.040 0.011-0.080 0.019-0.121 0.024-0.047 0.005-0.094 0.007-0.141 0.007-0.083 0.001-0.166-0.014-0.244-0.043-0.072-0.028-0.138-0.069-0.194-0.121-0.054-0.053-0.096-0.115-0.125-0.183-0.030-0.077-0.046-0.158-0.044-0.24-0.001-0.082 0.014-0.164 0.044-0.242 0.028-0.069 0.070-0.131 0.125-0.183s0.121-0.093 0.194-0.12c0.083-0.029 0.171-0.044 0.259-0.043 0.045-0 0.090 0.003 0.134 0.010 0.039 0.006 0.078 0.016 0.115 0.029 0.034 0.012 0.066 0.027 0.097 0.046s0.058 0.038 0.084 0.060l-0.046 0.071c-0.004 0.007-0.009 0.012-0.016 0.016s-0.014 0.006-0.022 0.006c-0.011-0-0.021-0.003-0.030-0.009-0.015-0.007-0.030-0.016-0.047-0.027-0.021-0.012-0.042-0.023-0.065-0.031-0.029-0.011-0.059-0.020-0.089-0.026-0.041-0.007-0.082-0.010-0.123-0.010-0.064-0.001-0.127 0.010-0.187 0.032-0.054 0.020-0.102 0.052-0.142 0.092-0.040 0.042-0.071 0.091-0.090 0.144-0.043 0.125-0.043 0.26 0 0.386 0.021 0.054 0.054 0.104 0.097 0.146 0.040 0.040 0.088 0.071 0.141 0.092 0.061 0.020 0.127 0.028 0.192 0.023z"></path>
<path fill="#afb1b8" style="fill: var(--color3, #afb1b8)" d="M20.584 17.816h0.528v0.132h-0.69v-1.157h0.165l-0.004 1.025z"></path>
<path fill="#afb1b8" style="fill: var(--color3, #afb1b8)" d="M21.662 17.947h-0.165v-1.157h0.165v1.157z"></path>
<path fill="#afb1b8" style="fill: var(--color3, #afb1b8)" d="M22.277 16.796c0.010 0.005 0.018 0.012 0.025 0.021l0.707 0.872c-0.001-0.014-0.001-0.027 0-0.041s0-0.026 0-0.038v-0.824h0.144v1.161h-0.083c-0.012 0.001-0.025-0.001-0.036-0.006-0.010-0.006-0.019-0.013-0.026-0.022l-0.706-0.871c0 0.014 0 0.027 0 0.039s0 0.025 0 0.036v0.824h-0.138v-1.157h0.086c0.009 0 0.019 0.002 0.027 0.006z"></path>
<path fill="#afb1b8" style="fill: var(--color3, #afb1b8)" d="M24.372 16.791v0.127h-0.586v0.382h0.475v0.123h-0.475v0.395h0.586v0.127h-0.757v-1.154h0.757z"></path>
<path fill="#afb1b8" style="fill: var(--color3, #afb1b8)" d="M7.035 9.646l7.346 1.975v6.92l-7.346-1.974v-6.921zM6.564 9.057v7.847l8.288 2.228v-7.846l-8.288-2.229z"></path>
<path fill="#afb1b8" style="fill: var(--color3, #afb1b8)" d="M11.006 22.774l-8.289-2.23v-7.846l8.289 2.229v7.847z"></path>
<path fill="#afb1b8" style="fill: var(--color3, #afb1b8)" d="M6.701 9.558l7.251 1.95-3.083 2.92-7.252-1.951 3.084-2.919zM6.564 9.057l-3.847 3.642 8.289 2.229 3.846-3.642-8.288-2.229z"></path>
<path fill="#afb1b8" style="fill: var(--color3, #afb1b8)" d="M11.472 22.333l3.38-3.2-3.38-0.91v4.11z"></path>
</symbol>
<symbol id="icon-clock_mobile_1" viewBox="0 0 32 32">
<path fill="#212121" style="fill: var(--color1, #212121)" d="M31.297 15.301c-0.002-8.452-6.855-15.303-15.308-15.301s-15.303 6.855-15.301 15.308c0.001 6.658 4.307 12.551 10.649 14.576 0.061 0.019 0.124 0.029 0.187 0.029 0.121-0 0.239-0.032 0.342-0.094 0.135-0.080 0.236-0.207 0.283-0.356l3.865-12.25c1.057-0.005 1.909-0.866 1.903-1.923s-0.866-1.909-1.923-1.903c-0.284 0.001-0.565 0.067-0.82 0.191l-5.106-5.107c-0.253-0.245-0.657-0.238-0.902 0.016-0.239 0.247-0.239 0.639 0 0.886l5.103 5.109c-0.392 0.799-0.168 1.764 0.536 2.309l-3.683 11.673c-7.278-2.681-11.004-10.754-8.323-18.032s10.754-11.004 18.032-8.323 11.004 10.754 8.323 18.032c-1.31 3.556-4.001 6.431-7.462 7.973l-0.398-1.874c-0.073-0.344-0.411-0.565-0.756-0.492-0.109 0.023-0.209 0.074-0.292 0.148l-3.837 3.426c-0.263 0.234-0.287 0.637-0.052 0.9 0.076 0.085 0.174 0.149 0.283 0.184l4.899 1.563c0.335 0.108 0.694-0.077 0.802-0.412 0.034-0.106 0.040-0.219 0.017-0.328l-0.391-1.839c5.664-2.388 9.342-7.942 9.329-14.089zM15.992 14.664c0.352 0 0.638 0.286 0.638 0.638s-0.286 0.638-0.638 0.638c-0.352 0-0.638-0.285-0.638-0.638s0.285-0.638 0.638-0.638zM18.093 29.528l2.184-1.948 0.603 2.84-2.787-0.892z"></path>
<path fill="#2196f3" style="fill: var(--color2, #2196f3)" d="M15.354 3.185v1.275c0 0.352 0.285 0.638 0.638 0.638s0.638-0.285 0.638-0.638v-1.275c0-0.352-0.286-0.638-0.638-0.638s-0.638 0.286-0.638 0.638z"></path>
<path fill="#2196f3" style="fill: var(--color2, #2196f3)" d="M3.876 14.664c-0.352 0-0.638 0.286-0.638 0.638s0.285 0.638 0.638 0.638h1.275c0.352 0 0.638-0.285 0.638-0.638s-0.285-0.638-0.638-0.638h-1.275z"></path>
<path fill="#2196f3" style="fill: var(--color2, #2196f3)" d="M28.108 15.939c0.352 0 0.638-0.285 0.638-0.638s-0.285-0.638-0.638-0.638h-1.275c-0.352 0-0.638 0.286-0.638 0.638s0.286 0.638 0.638 0.638h1.275z"></path>
</symbol>
<symbol id="icon-close_mobile" viewBox="0 0 32 32">
<path d="M23.733 10.304l-1.504-1.504-5.963 5.963-5.963-5.963-1.504 1.504 5.963 5.963-5.963 5.963 1.504 1.504 5.963-5.963 5.963 5.963 1.504-1.504-5.963-5.963 5.963-5.963z"></path>
</symbol>
<symbol id="icon-diagram_mobile_1" viewBox="0 0 32 32">
<path fill="#2196f3" style="fill: var(--color2, #2196f3)" d="M14.925 14.965h1.066v4.798h-1.066v-4.797z"></path>
<path fill="#2196f3" style="fill: var(--color2, #2196f3)" d="M19.19 17.097h1.066v2.665h-1.066v-2.665z"></path>
<path fill="#2196f3" style="fill: var(--color2, #2196f3)" d="M10.661 18.696h1.066v1.066h-1.066v-1.066z"></path>
<path fill="#2196f3" style="fill: var(--color2, #2196f3)" d="M7.463 18.163h1.066v1.599h-1.066v-1.599z"></path>
<path fill="#212121" style="fill: var(--color1, #212121)" d="M1.599 28.291h25.587c0.883 0 1.599-0.716 1.599-1.599v-2.132c0-0.883-0.716-1.599-1.599-1.599h-0.533v-13.293l3.028-2.868c0.703 0.346 1.553 0.136 2.013-0.499s0.396-1.508-0.152-2.068-1.42-0.644-2.065-0.198c-0.644 0.446-0.873 1.292-0.542 2.002l-2.281 2.163v-1.23c0-0.883-0.716-1.599-1.599-1.599h-21.322c-0.883 0-1.599 0.716-1.599 1.599v15.992h-0.533c-0.883 0-1.599 0.716-1.599 1.599v2.132c0 0.883 0.716 1.599 1.599 1.599zM30.384 4.837c0.294 0 0.533 0.239 0.533 0.533s-0.239 0.533-0.533 0.533c-0.294 0-0.533-0.239-0.533-0.533s0.239-0.533 0.533-0.533zM3.198 6.969c0-0.294 0.239-0.533 0.533-0.533h21.322c0.294 0 0.533 0.239 0.533 0.533v2.239l-1.066 1.013v-2.186c0-0.294-0.239-0.533-0.533-0.533h-19.19c-0.294 0-0.533 0.239-0.533 0.533v13.326c0 0.294 0.239 0.533 0.533 0.533h19.19c0.294 0 0.533-0.239 0.533-0.533v-9.674l1.066-1.010v12.284h-22.388v-15.992zM7.996 13.898c-0.721-0.002-1.354 0.478-1.546 1.174s0.105 1.433 0.725 1.801c0.62 0.368 1.41 0.276 1.928-0.226l1.853 0.93c0.215 0.108 0.476 0.057 0.636-0.123l3.939-4.431 3.872 2.901c0.208 0.156 0.498 0.139 0.686-0.039l3.365-3.188v8.131h-18.124v-12.26h18.124v2.66l-3.771 3.572-3.904-2.927c-0.222-0.166-0.534-0.135-0.718 0.072l-3.993 4.493-1.493-0.746c0.011-0.064 0.018-0.129 0.020-0.193 0-0.883-0.716-1.599-1.599-1.599zM8.529 15.498c0 0.294-0.239 0.533-0.533 0.533s-0.533-0.239-0.533-0.533c0-0.294 0.239-0.533 0.533-0.533s0.533 0.239 0.533 0.533zM11.727 24.026h5.331v0.533c0 0.294-0.239 0.533-0.533 0.533h-4.264c-0.294 0-0.533-0.239-0.533-0.533v-0.533zM1.066 24.56c0-0.294 0.239-0.533 0.533-0.533h9.062v0.533c0 0.883 0.716 1.599 1.599 1.599h4.264c0.883 0 1.599-0.716 1.599-1.599v-0.533h9.062c0.294 0 0.533 0.239 0.533 0.533v2.132c0 0.294-0.239 0.533-0.533 0.533h-25.587c-0.294 0-0.533-0.239-0.533-0.533v-2.132z"></path>
</symbol>
<symbol id="icon-facebook_mobile" viewBox="0 0 32 32">
<path fill="#fff" style="fill: var(--color4, #fff)" d="M32 16c0 4.418-1.791 8.418-4.686 11.314s-6.895 4.686-11.314 4.686-8.418-1.791-11.314-4.686c-2.895-2.895-4.686-6.895-4.686-11.314s1.791-8.418 4.686-11.314 6.895-4.686 11.314-4.686c4.418 0 8.418 1.791 11.314 4.686s4.686 6.895 4.686 11.314z"></path>
<path fill="#afb1b8" style="fill: var(--color3, #afb1b8)" d="M18.422 11.142h1.328v-2.313c-0.229-0.031-1.017-0.102-1.935-0.102-1.915 0-3.226 1.204-3.226 3.418v2.037h-2.113v2.585h2.113v6.505h2.59v-6.505h2.027l0.322-2.585h-2.35v-1.781c0.001-0.747 0.202-1.259 1.243-1.259z"></path>
</symbol>
<symbol id="icon-instagram_mobile" viewBox="0 0 32 32">
<path fill="#fff" style="fill: var(--color4, #fff)" d="M32 16c0 4.418-1.791 8.418-4.686 11.314s-6.895 4.686-11.314 4.686-8.418-1.791-11.314-4.686c-2.895-2.895-4.686-6.895-4.686-11.314s1.791-8.418 4.686-11.314 6.895-4.686 11.314-4.686c4.418 0 8.418 1.791 11.314 4.686s4.686 6.895 4.686 11.314z"></path>
<path fill="#afb1b8" style="fill: var(--color3, #afb1b8)" d="M23.258 13.004c-0.034-0.773-0.159-1.304-0.338-1.765-0.185-0.489-0.469-0.926-0.841-1.29-0.364-0.369-0.804-0.656-1.287-0.838-0.463-0.179-0.992-0.304-1.764-0.338-0.779-0.037-1.026-0.046-3.001-0.046s-2.222 0.009-2.998 0.043c-0.773 0.034-1.304 0.159-1.764 0.338-0.489 0.185-0.926 0.469-1.29 0.841-0.369 0.364-0.656 0.804-0.838 1.287-0.179 0.463-0.304 0.992-0.338 1.764-0.037 0.779-0.045 1.026-0.045 3.001s0.008 2.222 0.043 2.998c0.034 0.773 0.159 1.304 0.338 1.765 0.185 0.489 0.472 0.926 0.841 1.29 0.364 0.369 0.804 0.656 1.287 0.838 0.463 0.179 0.992 0.304 1.765 0.338 0.776 0.034 1.023 0.043 2.998 0.043s2.222-0.008 2.998-0.043c0.773-0.034 1.304-0.159 1.764-0.338 0.978-0.378 1.75-1.151 2.128-2.128 0.179-0.463 0.304-0.992 0.338-1.765 0.034-0.776 0.043-1.023 0.043-2.998s-0.003-2.222-0.037-2.998zM21.949 18.942c-0.031 0.71-0.151 1.094-0.25 1.35-0.244 0.634-0.747 1.137-1.381 1.381-0.256 0.099-0.642 0.219-1.35 0.25-0.767 0.034-0.997 0.043-2.938 0.043s-2.174-0.008-2.938-0.043c-0.71-0.031-1.094-0.15-1.35-0.25-0.315-0.116-0.602-0.301-0.835-0.543-0.242-0.236-0.426-0.52-0.543-0.835-0.099-0.256-0.219-0.642-0.25-1.35-0.034-0.767-0.043-0.997-0.043-2.938s0.008-2.174 0.043-2.938c0.031-0.71 0.151-1.094 0.25-1.35 0.117-0.315 0.301-0.602 0.546-0.835 0.236-0.242 0.52-0.426 0.835-0.543 0.256-0.099 0.642-0.219 1.35-0.25 0.767-0.034 0.997-0.043 2.938-0.043 1.944 0 2.174 0.008 2.938 0.043 0.71 0.031 1.094 0.151 1.35 0.25 0.315 0.116 0.602 0.301 0.835 0.543 0.241 0.236 0.426 0.52 0.543 0.835 0.099 0.256 0.219 0.642 0.25 1.35 0.034 0.767 0.043 0.997 0.043 2.938s-0.009 2.168-0.043 2.935z"></path>
<path fill="#afb1b8" style="fill: var(--color3, #afb1b8)" d="M16.027 12.265c-2.063 0-3.736 1.674-3.736 3.736s1.674 3.736 3.736 3.736c2.063 0 3.737-1.674 3.737-3.736s-1.674-3.736-3.737-3.736zM16.027 18.425c-1.338 0-2.424-1.085-2.424-2.424s1.086-2.424 2.424-2.424c1.338 0 2.424 1.085 2.424 2.424s-1.085 2.424-2.424 2.424z"></path>
<path fill="#afb1b8" style="fill: var(--color3, #afb1b8)" d="M20.784 12.117c0 0.482-0.391 0.872-0.872 0.872s-0.872-0.391-0.872-0.872c0-0.482 0.391-0.872 0.872-0.872s0.872 0.39 0.872 0.872z"></path>
</symbol>
<symbol id="icon-linkedin_mobile" viewBox="0 0 32 32">
<path fill="#fff" style="fill: var(--color4, #fff)" d="M32 16c0 4.418-1.791 8.418-4.686 11.314s-6.895 4.686-11.314 4.686-8.418-1.791-11.314-4.686c-2.895-2.895-4.686-6.895-4.686-11.314s1.791-8.418 4.686-11.314 6.895-4.686 11.314-4.686c4.418 0 8.418 1.791 11.314 4.686s4.686 6.895 4.686 11.314z"></path>
<path fill="#afb1b8" style="fill: var(--color3, #afb1b8)" d="M23.269 23.273v-0.001h0.004v-5.335c0-2.61-0.562-4.62-3.613-4.62-1.467 0-2.451 0.805-2.853 1.568h-0.042v-1.324h-2.893v9.711h3.012v-4.809c0-1.266 0.24-2.49 1.808-2.49 1.545 0 1.568 1.445 1.568 2.572v4.728h3.009z"></path>
<path fill="#afb1b8" style="fill: var(--color3, #afb1b8)" d="M8.967 13.562h3.016v9.711h-3.016v-9.711z"></path>
<path fill="#afb1b8" style="fill: var(--color3, #afb1b8)" d="M10.474 8.727c-0.964 0-1.747 0.782-1.747 1.747s0.782 1.763 1.747 1.763c0.964 0 1.747-0.799 1.747-1.763s-0.783-1.747-1.747-1.747v0z"></path>
</symbol>
<symbol id="icon-menu_mobile" viewBox="0 0 32 32">
<path d="M6.4 11.733v-2.133h19.2v2.133h-19.2zM6.4 17.067h19.2v-2.133h-19.2v2.133zM6.4 22.4h19.2v-2.133h-19.2v2.133z"></path>
</symbol>
<symbol id="icon-twitter_mobile" viewBox="0 0 32 32">
<path fill="#fff" style="fill: var(--color4, #fff)" d="M32 16c0 4.418-1.791 8.418-4.686 11.314s-6.895 4.686-11.314 4.686-8.418-1.791-11.314-4.686c-2.895-2.895-4.686-6.895-4.686-11.314s1.791-8.418 4.686-11.314 6.895-4.686 11.314-4.686c4.418 0 8.418 1.791 11.314 4.686s4.686 6.895 4.686 11.314z"></path>
<path fill="#afb1b8" style="fill: var(--color3, #afb1b8)" d="M23.273 11.49c-0.541 0.237-1.117 0.394-1.718 0.471 0.618-0.369 1.090-0.949 1.312-1.648-0.576 0.344-1.213 0.586-1.891 0.722-0.547-0.583-1.327-0.944-2.178-0.944-1.651 0-2.98 1.34-2.98 2.983 0 0.236 0.020 0.464 0.069 0.68-2.479-0.121-4.673-1.309-6.146-3.119-0.257 0.446-0.408 0.957-0.408 1.507 0 1.033 0.532 1.948 1.325 2.478-0.479-0.009-0.949-0.148-1.347-0.367 0 0.009 0 0.021 0 0.033 0 1.449 1.034 2.653 2.389 2.93-0.243 0.066-0.507 0.098-0.782 0.098-0.191 0-0.384-0.011-0.565-0.051 0.386 1.181 1.483 2.049 2.786 2.077-1.015 0.794-2.303 1.272-3.697 1.272-0.245 0-0.479-0.011-0.714-0.041 1.321 0.852 2.886 1.338 4.575 1.338 5.487 0 8.487-4.545 8.487-8.485 0-0.132-0.005-0.259-0.011-0.385 0.592-0.42 1.089-0.944 1.495-1.548z"></path>
</symbol>
<symbol id="hamburger" viewBox="0 0 32 32">
<path d="M6.4 11.733v-2.133h19.2v2.133h-19.2zM6.4 17.067h19.2v-2.133h-19.2v2.133zM6.4 22.4h19.2v-2.133h-19.2v2.133z"></path>
</symbol>
<symbol id="hamburger-close" viewBox="0 0 32 32">
<path d="M23.733 10.304l-1.504-1.504-5.963 5.963-5.963-5.963-1.504 1.504 5.963 5.963-5.963 5.963 1.504 1.504 5.963-5.963 5.963 5.963 1.504-1.504-5.963-5.963 5.963-5.963z" ></path>
</symbol>
</defs>
</svg>
